<svg id="visual" viewBox="0 0 1440 1024" width="1440" height="1024" xmlns="http://www.w3.org/2000/svg" xmlns:xlink="http://www.w3.org/1999/xlink" version="1.1"><rect x="0" y="0" width="1440" height="1024" fill="#BBDED6"></rect><defs><linearGradient id="grad1_0" x1="28.9%" y1="100%" x2="100%" y2="0%"><stop offset="21.875%" stop-color="#8ac6d1" stop-opacity="1"></stop><stop offset="78.125%" stop-color="#8ac6d1" stop-opacity="1"></stop></linearGradient></defs><defs><linearGradient id="grad1_1" x1="28.9%" y1="100%" x2="100%" y2="0%"><stop offset="21.875%" stop-color="#8ac6d1" stop-opacity="1"></stop><stop offset="78.125%" stop-color="#bbded6" stop-opacity="1"></stop></linearGradient></defs><defs><linearGradient id="grad2_0" x1="0%" y1="100%" x2="71.1%" y2="0%"><stop offset="21.875%" stop-color="#8ac6d1" stop-opacity="1"></stop><stop offset="78.125%" stop-color="#8ac6d1" stop-opacity="1"></stop></linearGradient></defs><defs><linearGradient id="grad2_1" x1="0%" y1="100%" x2="71.1%" y2="0%"><stop offset="21.875%" stop-color="#bbded6" stop-opacity="1"></stop><stop offset="78.125%" stop-color="#8ac6d1" stop-opacity="1"></stop></linearGradient></defs><g transform="translate(1440, 1024)"><path d="M-568 0C-548.9 -54.4 -529.7 -108.8 -518.3 -168.4C-506.9 -228 -503.2 -292.8 -478.1 -347.4C-453.1 -402 -406.7 -446.5 -356.2 -490.3C-305.7 -534.1 -251.2 -577.2 -191.1 -588.2C-131.1 -599.2 -65.5 -578.1 0 -557L0 0Z" fill="#a2d2d2"></path><path d="M-284 0C-274.4 -27.2 -264.9 -54.4 -259.2 -84.2C-253.5 -114 -251.6 -146.4 -239.1 -173.7C-226.5 -201 -203.3 -223.2 -178.1 -245.1C-152.9 -267 -125.6 -288.6 -95.6 -294.1C-65.5 -299.6 -32.8 -289 0 -278.5L0 0Z" fill="#8ac6d1"></path></g><g transform="translate(0, 0)"><path d="M566 0C590.5 69.6 615 139.3 588.2 191.1C561.4 242.9 483.3 277 432 313.9C380.7 350.8 356.2 390.6 322.1 443.3C288 496.1 244.4 561.8 189.1 582C133.8 602.3 66.9 577.2 0 552L0 0Z" fill="#a2d2d2"></path><path d="M283 0C295.2 34.8 307.5 69.6 294.1 95.6C280.7 121.5 241.7 138.5 216 156.9C190.4 175.4 178.1 195.3 161.1 221.7C144 248 122.2 280.9 94.6 291C66.9 301.2 33.5 288.6 0 276L0 0Z" fill="#8ac6d1"></path></g></svg>