<svg id="visual" viewBox="0 0 1440 1024" width="1440" height="1024" xmlns="http://www.w3.org/2000/svg" xmlns:xlink="http://www.w3.org/1999/xlink" version="1.1"><rect x="0" y="0" width="1440" height="1024" fill="#8AC6D1"></rect><path d="M0 595L30 594.8C60 594.7 120 594.3 180 620.3C240 646.3 300 698.7 360 716.7C420 734.7 480 718.3 540 715.8C600 713.3 660 724.7 720 716.7C780 708.7 840 681.3 900 676C960 670.7 1020 687.3 1080 676.3C1140 665.3 1200 626.7 1260 612.5C1320 598.3 1380 608.7 1410 613.8L1440 619L1440 1025L1410 1025C1380 1025 1320 1025 1260 1025C1200 1025 1140 1025 1080 1025C1020 1025 960 1025 900 1025C840 1025 780 1025 720 1025C660 1025 600 1025 540 1025C480 1025 420 1025 360 1025C300 1025 240 1025 180 1025C120 1025 60 1025 30 1025L0 1025Z" fill="#f18d53"></path><path d="M0 691L30 700.7C60 710.3 120 729.7 180 724.8C240 720 300 691 360 683C420 675 480 688 540 706.5C600 725 660 749 720 753.8C780 758.7 840 744.3 900 737.3C960 730.3 1020 730.7 1080 720.5C1140 710.3 1200 689.7 1260 686.3C1320 683 1380 697 1410 704L1440 711L1440 1025L1410 1025C1380 1025 1320 1025 1260 1025C1200 1025 1140 1025 1080 1025C1020 1025 960 1025 900 1025C840 1025 780 1025 720 1025C660 1025 600 1025 540 1025C480 1025 420 1025 360 1025C300 1025 240 1025 180 1025C120 1025 60 1025 30 1025L0 1025Z" fill="#f1a56f"></path><path d="M0 776L30 776.3C60 776.7 120 777.3 180 772.2C240 767 300 756 360 754C420 752 480 759 540 772.8C600 786.7 660 807.3 720 824.2C780 841 840 854 900 844.3C960 834.7 1020 802.3 1080 802.7C1140 803 1200 836 1260 833.3C1320 830.7 1380 792.3 1410 773.2L1440 754L1440 1025L1410 1025C1380 1025 1320 1025 1260 1025C1200 1025 1140 1025 1080 1025C1020 1025 960 1025 900 1025C840 1025 780 1025 720 1025C660 1025 600 1025 540 1025C480 1025 420 1025 360 1025C300 1025 240 1025 180 1025C120 1025 60 1025 30 1025L0 1025Z" fill="#f0bb8f"></path><path d="M0 820L30 825.5C60 831 120 842 180 848.7C240 855.3 300 857.7 360 852.5C420 847.3 480 834.7 540 843.7C600 852.7 660 883.3 720 899.8C780 916.3 840 918.7 900 902.3C960 886 1020 851 1080 838.7C1140 826.3 1200 836.7 1260 841.8C1320 847 1380 847 1410 847L1440 847L1440 1025L1410 1025C1380 1025 1320 1025 1260 1025C1200 1025 1140 1025 1080 1025C1020 1025 960 1025 900 1025C840 1025 780 1025 720 1025C660 1025 600 1025 540 1025C480 1025 420 1025 360 1025C300 1025 240 1025 180 1025C120 1025 60 1025 30 1025L0 1025Z" fill="#f0d0b2"></path><path d="M0 954L30 949.3C60 944.7 120 935.3 180 925.5C240 915.7 300 905.3 360 913.8C420 922.3 480 949.7 540 955.5C600 961.3 660 945.7 720 931.5C780 917.3 840 904.7 900 899C960 893.3 1020 894.7 1080 897.5C1140 900.3 1200 904.7 1260 910.5C1320 916.3 1380 923.7 1410 927.3L1440 931L1440 1025L1410 1025C1380 1025 1320 1025 1260 1025C1200 1025 1140 1025 1080 1025C1020 1025 960 1025 900 1025C840 1025 780 1025 720 1025C660 1025 600 1025 540 1025C480 1025 420 1025 360 1025C300 1025 240 1025 180 1025C120 1025 60 1025 30 1025L0 1025Z" fill="#f0e4d7"></path></svg>